<svg width="1696" height="598" viewBox="0 0 1696 598" fill="none" xmlns="http://www.w3.org/2000/svg">
<circle cx="309" cy="283" r="283" fill="url(#paint0_linear)"/>
<g filter="url(#filter0_i)">
<path d="M330.923 543.521L437.421 442.977" stroke="white" stroke-width="60" stroke-linecap="round" stroke-linejoin="round"/>
</g>
<g filter="url(#filter1_i)">
<path d="M47.4856 262.958L152.421 163.977" stroke="white" stroke-width="60" stroke-linecap="round" stroke-linejoin="round"/>
</g>
<g filter="url(#filter2_i)">
<path d="M56.3457 389.677L257.671 194.306" stroke="white" stroke-width="60" stroke-linecap="round" stroke-linejoin="round"/>
</g>
<g filter="url(#filter3_i)">
<path d="M202.924 530.506L397.063 342.322" stroke="white" stroke-width="60" stroke-linecap="round" stroke-linejoin="round"/>
</g>
<g filter="url(#filter4_i)">
<path d="M43 554.5L396.283 202" stroke="white" stroke-width="60" stroke-linecap="round" stroke-linejoin="round"/>
</g>
<g filter="url(#filter5_i)">
<path d="M473.345 123.782L424.034 307.815L289.312 173.093L473.345 123.782Z" fill="white"/>
</g>
<g filter="url(#filter6_d)">
<path d="M730.064 388.456C718.16 388.456 705.872 386.344 693.2 382.12C680.72 377.704 669.392 370.888 659.216 361.672L687.44 327.688C694.16 333.064 701.36 337.48 709.04 340.936C716.912 344.2 724.304 345.832 731.216 345.832C738.704 345.832 744.08 344.68 747.344 342.376C750.8 340.072 752.528 336.808 752.528 332.584C752.528 330.28 751.952 328.36 750.8 326.824C749.648 325.288 747.92 323.848 745.616 322.504C743.504 321.16 740.912 319.912 737.84 318.76C734.768 317.416 731.216 315.976 727.184 314.44L703.856 304.648C698.864 302.728 694.064 300.232 689.456 297.16C684.848 293.896 680.816 290.152 677.36 285.928C673.904 281.512 671.12 276.52 669.008 270.952C667.088 265.384 666.128 259.24 666.128 252.52C666.128 244.456 667.856 236.968 671.312 230.056C674.768 222.952 679.568 216.808 685.712 211.624C691.856 206.248 699.152 202.024 707.6 198.952C716.24 195.88 725.648 194.344 735.824 194.344C746.576 194.344 757.424 196.36 768.368 200.392C779.504 204.424 789.392 210.76 798.032 219.4L773.264 250.504C766.928 246.088 760.784 242.728 754.832 240.424C749.072 238.12 742.736 236.968 735.824 236.968C729.68 236.968 724.88 238.024 721.424 240.136C717.968 242.248 716.24 245.416 716.24 249.64C716.24 254.056 718.64 257.512 723.44 260.008C728.432 262.312 735.248 265.096 743.888 268.36L766.64 277.288C778.352 281.896 787.376 288.328 793.712 296.584C800.048 304.84 803.216 315.496 803.216 328.552C803.216 336.424 801.584 344.008 798.32 351.304C795.056 358.6 790.256 365.032 783.92 370.6C777.776 375.976 770.192 380.296 761.168 383.56C752.144 386.824 741.776 388.456 730.064 388.456ZM879.876 388.456C870.468 388.456 862.404 387.112 855.684 384.424C849.156 381.544 843.684 377.512 839.268 372.328C835.044 367.144 831.876 361 829.764 353.896C827.844 346.6 826.884 338.536 826.884 329.704V279.592H807.876V242.728L829.764 241L835.524 203.56H876.42V241H909.252V279.592H876.42V328.84C876.42 336.904 878.148 342.472 881.604 345.544C885.06 348.424 889.092 349.864 893.7 349.864C896.004 349.864 898.212 349.672 900.324 349.288C902.628 348.712 904.644 348.136 906.372 347.56L913.86 383.272C910.02 384.424 905.412 385.576 900.036 386.728C894.66 387.88 887.94 388.456 879.876 388.456ZM994.171 388.456C984.955 388.456 976.027 386.824 967.387 383.56C958.747 380.104 951.067 375.208 944.347 368.872C937.819 362.344 932.539 354.376 928.507 344.968C924.667 335.56 922.747 324.904 922.747 313C922.747 301.096 924.667 290.44 928.507 281.032C932.539 271.624 937.819 263.752 944.347 257.416C951.067 250.888 958.747 245.992 967.387 242.728C976.027 239.272 984.955 237.544 994.171 237.544C1003.39 237.544 1012.22 239.272 1020.67 242.728C1029.31 245.992 1036.89 250.888 1043.42 257.416C1050.14 263.752 1055.52 271.624 1059.55 281.032C1063.58 290.44 1065.6 301.096 1065.6 313C1065.6 324.904 1063.58 335.56 1059.55 344.968C1055.52 354.376 1050.14 362.344 1043.42 368.872C1036.89 375.208 1029.31 380.104 1020.67 383.56C1012.22 386.824 1003.39 388.456 994.171 388.456ZM994.171 348.712C1001.66 348.712 1006.94 345.544 1010.01 339.208C1013.28 332.68 1014.91 323.944 1014.91 313C1014.91 302.056 1013.28 293.416 1010.01 287.08C1006.94 280.552 1001.66 277.288 994.171 277.288C986.683 277.288 981.307 280.552 978.043 287.08C974.971 293.416 973.435 302.056 973.435 313C973.435 323.944 974.971 332.68 978.043 339.208C981.307 345.544 986.683 348.712 994.171 348.712ZM1156.48 388.456C1146.3 388.456 1136.8 386.824 1127.97 383.56C1119.14 380.104 1111.46 375.208 1104.93 368.872C1098.4 362.344 1093.22 354.376 1089.38 344.968C1085.73 335.56 1083.9 324.904 1083.9 313C1083.9 301.096 1086.02 290.44 1090.24 281.032C1094.46 271.624 1100.13 263.752 1107.23 257.416C1114.34 250.888 1122.5 245.992 1131.71 242.728C1141.12 239.272 1150.91 237.544 1161.09 237.544C1169.73 237.544 1177.5 238.888 1184.42 241.576C1191.33 244.264 1197.57 247.912 1203.14 252.52L1180.1 284.2C1176.83 281.512 1173.95 279.688 1171.46 278.728C1169.15 277.768 1166.66 277.288 1163.97 277.288C1154.75 277.288 1147.55 280.552 1142.37 287.08C1137.18 293.416 1134.59 302.056 1134.59 313C1134.59 323.944 1137.18 332.68 1142.37 339.208C1147.74 345.544 1154.37 348.712 1162.24 348.712C1166.27 348.712 1170.21 347.848 1174.05 346.12C1178.08 344.392 1181.82 342.184 1185.28 339.496L1204.29 371.752C1196.99 378.088 1189.02 382.504 1180.38 385C1171.94 387.304 1163.97 388.456 1156.48 388.456ZM1227.24 385V184.552H1275.62V291.112H1276.77L1316.52 241H1370.08L1318.82 300.904L1372.96 385H1319.4L1290.6 333.736L1275.62 350.44V385H1227.24Z" fill="white"/>
<path d="M1394.95 385V197.8H1463.5C1473.67 197.8 1483.37 198.856 1492.59 200.968C1501.8 202.888 1509.87 206.344 1516.78 211.336C1523.69 216.136 1529.16 222.568 1533.19 230.632C1537.42 238.504 1539.53 248.296 1539.53 260.008C1539.53 271.528 1537.42 281.416 1533.19 289.672C1529.16 297.928 1523.69 304.744 1516.78 310.12C1509.87 315.304 1501.9 319.24 1492.87 321.928C1483.85 324.424 1474.44 325.672 1464.65 325.672H1444.49V385H1394.95ZM1444.49 286.504H1462.35C1472.14 286.504 1479.34 284.2 1483.95 279.592C1488.75 274.984 1491.15 268.456 1491.15 260.008C1491.15 251.56 1488.55 245.608 1483.37 242.152C1478.19 238.696 1470.79 236.968 1461.19 236.968H1444.49V286.504ZM1627.33 388.456C1616.77 388.456 1606.98 386.824 1597.96 383.56C1588.93 380.104 1581.06 375.208 1574.34 368.872C1567.81 362.344 1562.63 354.376 1558.79 344.968C1554.95 335.56 1553.03 324.904 1553.03 313C1553.03 301.288 1554.95 290.824 1558.79 281.608C1562.82 272.2 1568 264.232 1574.34 257.704C1580.87 251.176 1588.26 246.184 1596.52 242.728C1604.77 239.272 1613.32 237.544 1622.15 237.544C1632.71 237.544 1641.92 239.368 1649.8 243.016C1657.67 246.664 1664.2 251.656 1669.38 257.992C1674.56 264.328 1678.4 271.72 1680.9 280.168C1683.59 288.616 1684.93 297.64 1684.93 307.24C1684.93 311.656 1684.64 315.784 1684.07 319.624C1683.68 323.464 1683.3 326.248 1682.92 327.976H1600.84C1603.14 336.616 1607.27 342.664 1613.22 346.12C1619.17 349.384 1626.18 351.016 1634.24 351.016C1639.24 351.016 1644.04 350.344 1648.64 349C1653.44 347.464 1658.44 345.256 1663.62 342.376L1679.75 371.752C1671.88 377.32 1663.14 381.544 1653.54 384.424C1644.13 387.112 1635.4 388.456 1627.33 388.456ZM1600.26 295.72H1642.88C1642.88 290.152 1641.44 285.352 1638.56 281.32C1635.88 277.096 1630.79 274.984 1623.3 274.984C1617.73 274.984 1612.84 276.616 1608.61 279.88C1604.58 283.144 1601.8 288.424 1600.26 295.72Z" fill="#33E6F6"/>
</g>
<defs>
<filter id="filter0_i" x="288.496" y="397.573" width="191.351" height="195.351" filterUnits="userSpaceOnUse" color-interpolation-filters="sRGB">
<feFlood flood-opacity="0" result="BackgroundImageFix"/>
<feBlend mode="normal" in="SourceGraphic" in2="BackgroundImageFix" result="shape"/>
<feColorMatrix in="SourceAlpha" type="matrix" values="0 0 0 0 0 0 0 0 0 0 0 0 0 0 0 0 0 0 127 0" result="hardAlpha"/>
<feOffset dy="4"/>
<feGaussianBlur stdDeviation="2"/>
<feComposite in2="hardAlpha" operator="arithmetic" k2="-1" k3="1"/>
<feColorMatrix type="matrix" values="0 0 0 0 0 0 0 0 0 0 0 0 0 0 0 0 0 0 0.25 0"/>
<feBlend mode="normal" in2="shape" result="effect1_innerShadow"/>
</filter>
<filter id="filter1_i" x="5.05883" y="118.573" width="189.789" height="193.789" filterUnits="userSpaceOnUse" color-interpolation-filters="sRGB">
<feFlood flood-opacity="0" result="BackgroundImageFix"/>
<feBlend mode="normal" in="SourceGraphic" in2="BackgroundImageFix" result="shape"/>
<feColorMatrix in="SourceAlpha" type="matrix" values="0 0 0 0 0 0 0 0 0 0 0 0 0 0 0 0 0 0 127 0" result="hardAlpha"/>
<feOffset dy="4"/>
<feGaussianBlur stdDeviation="2"/>
<feComposite in2="hardAlpha" operator="arithmetic" k2="-1" k3="1"/>
<feColorMatrix type="matrix" values="0 0 0 0 0 0 0 0 0 0 0 0 0 0 0 0 0 0 0.25 0"/>
<feBlend mode="normal" in2="shape" result="effect1_innerShadow"/>
</filter>
<filter id="filter2_i" x="13.9192" y="148.903" width="286.178" height="290.178" filterUnits="userSpaceOnUse" color-interpolation-filters="sRGB">
<feFlood flood-opacity="0" result="BackgroundImageFix"/>
<feBlend mode="normal" in="SourceGraphic" in2="BackgroundImageFix" result="shape"/>
<feColorMatrix in="SourceAlpha" type="matrix" values="0 0 0 0 0 0 0 0 0 0 0 0 0 0 0 0 0 0 127 0" result="hardAlpha"/>
<feOffset dy="4"/>
<feGaussianBlur stdDeviation="2"/>
<feComposite in2="hardAlpha" operator="arithmetic" k2="-1" k3="1"/>
<feColorMatrix type="matrix" values="0 0 0 0 0 0 0 0 0 0 0 0 0 0 0 0 0 0 0.25 0"/>
<feBlend mode="normal" in2="shape" result="effect1_innerShadow"/>
</filter>
<filter id="filter3_i" x="160.498" y="296.918" width="278.992" height="282.992" filterUnits="userSpaceOnUse" color-interpolation-filters="sRGB">
<feFlood flood-opacity="0" result="BackgroundImageFix"/>
<feBlend mode="normal" in="SourceGraphic" in2="BackgroundImageFix" result="shape"/>
<feColorMatrix in="SourceAlpha" type="matrix" values="0 0 0 0 0 0 0 0 0 0 0 0 0 0 0 0 0 0 127 0" result="hardAlpha"/>
<feOffset dy="4"/>
<feGaussianBlur stdDeviation="2"/>
<feComposite in2="hardAlpha" operator="arithmetic" k2="-1" k3="1"/>
<feColorMatrix type="matrix" values="0 0 0 0 0 0 0 0 0 0 0 0 0 0 0 0 0 0 0.25 0"/>
<feBlend mode="normal" in2="shape" result="effect1_innerShadow"/>
</filter>
<filter id="filter4_i" x="0.573593" y="159.182" width="438.136" height="442.136" filterUnits="userSpaceOnUse" color-interpolation-filters="sRGB">
<feFlood flood-opacity="0" result="BackgroundImageFix"/>
<feBlend mode="normal" in="SourceGraphic" in2="BackgroundImageFix" result="shape"/>
<feColorMatrix in="SourceAlpha" type="matrix" values="0 0 0 0 0 0 0 0 0 0 0 0 0 0 0 0 0 0 127 0" result="hardAlpha"/>
<feOffset dy="4"/>
<feGaussianBlur stdDeviation="2"/>
<feComposite in2="hardAlpha" operator="arithmetic" k2="-1" k3="1"/>
<feColorMatrix type="matrix" values="0 0 0 0 0 0 0 0 0 0 0 0 0 0 0 0 0 0 0.25 0"/>
<feBlend mode="normal" in2="shape" result="effect1_innerShadow"/>
</filter>
<filter id="filter5_i" x="289.312" y="56.4209" width="251.395" height="255.395" filterUnits="userSpaceOnUse" color-interpolation-filters="sRGB">
<feFlood flood-opacity="0" result="BackgroundImageFix"/>
<feBlend mode="normal" in="SourceGraphic" in2="BackgroundImageFix" result="shape"/>
<feColorMatrix in="SourceAlpha" type="matrix" values="0 0 0 0 0 0 0 0 0 0 0 0 0 0 0 0 0 0 127 0" result="hardAlpha"/>
<feOffset dy="4"/>
<feGaussianBlur stdDeviation="2"/>
<feComposite in2="hardAlpha" operator="arithmetic" k2="-1" k3="1"/>
<feColorMatrix type="matrix" values="0 0 0 0 0 0 0 0 0 0 0 0 0 0 0 0 0 0 0.25 0"/>
<feBlend mode="normal" in2="shape" result="effect1_innerShadow"/>
</filter>
<filter id="filter6_d" x="655.216" y="184.552" width="1033.72" height="211.904" filterUnits="userSpaceOnUse" color-interpolation-filters="sRGB">
<feFlood flood-opacity="0" result="BackgroundImageFix"/>
<feColorMatrix in="SourceAlpha" type="matrix" values="0 0 0 0 0 0 0 0 0 0 0 0 0 0 0 0 0 0 127 0"/>
<feOffset dy="4"/>
<feGaussianBlur stdDeviation="2"/>
<feColorMatrix type="matrix" values="0 0 0 0 0 0 0 0 0 0 0 0 0 0 0 0 0 0 0.25 0"/>
<feBlend mode="normal" in2="BackgroundImageFix" result="effect1_dropShadow"/>
<feBlend mode="normal" in="SourceGraphic" in2="effect1_dropShadow" result="shape"/>
</filter>
<linearGradient id="paint0_linear" x1="26" y1="-75" x2="592" y2="646.5" gradientUnits="userSpaceOnUse">
<stop offset="0.0833333" stop-color="#33E6F6"/>
<stop offset="0.489583" stop-color="#1E71ED"/>
<stop offset="0.895833" stop-color="#33E6F6"/>
</linearGradient>
</defs>
</svg>
